/* XPM */
static char *a0a70bf26f0a4b82925faf64292a67caTNv8iUkpw6I1V9VM[] = {
/* columns rows colors chars-per-pixel */
"60 60 159 2 ",
"   c #000001",
".  c #080607",
"X  c #010A07",
"o  c #02050A",
"O  c #09070A",
"+  c #04090D",
"@  c #090A0C",
"#  c #020711",
"$  c #050C13",
"%  c #090D13",
"&  c #00071B",
"*  c #050E19",
"=  c #0B0E19",
"-  c #061215",
";  c #0B1116",
":  c #081B15",
">  c #06121C",
",  c #0B131C",
"<  c #001A19",
"1  c #10161E",
"2  c #020E22",
"3  c #041424",
"4  c #0C1522",
"5  c #061D25",
"6  c #0D1924",
"7  c #0C162D",
"8  c #061B2A",
"9  c #0D1C2B",
"0  c #101721",
"q  c #121A25",
"w  c #131D2C",
"e  c #041C33",
"r  c #0C1E31",
"t  c #141332",
"y  c #121F30",
"u  c #0B212F",
"i  c #13222C",
"p  c #18202B",
"a  c #0F2437",
"s  c #0E2135",
"d  c #0D263D",
"f  c #0D253A",
"g  c #09283D",
"h  c #142334",
"j  c #1A2237",
"k  c #162836",
"l  c #1B2831",
"z  c #10253A",
"x  c #14263C",
"c  c #15263C",
"v  c #12293B",
"b  c #162D3D",
"n  c #1A2B3C",
"m  c #202336",
"M  c #042642",
"N  c #0B2643",
"B  c #0E2C46",
"V  c #0B2A47",
"C  c #03274B",
"Z  c #0D2748",
"A  c #07294C",
"S  c #1A2747",
"D  c #122B41",
"F  c #152F46",
"G  c #142B44",
"H  c #1B2C43",
"J  c #132D4C",
"K  c #1D2E48",
"L  c #1B2C48",
"P  c #1F3243",
"I  c #15314C",
"U  c #183249",
"Y  c #193648",
"T  c #1B3148",
"R  c #0B2E56",
"E  c #0E345B",
"W  c #103353",
"Q  c #153253",
"!  c #1D3651",
"~  c #193451",
"^  c #143852",
"/  c #1F3C54",
"(  c #13365C",
")  c #1A3B5A",
"_  c #222544",
"`  c #212A47",
"'  c #202B49",
"]  c #202F4E",
"[  c #223C54",
"{  c #22395B",
"}  c #0B3764",
"|  c #1B3D60",
" . c #21405D",
".. c #2B435B",
"X. c #28445A",
"o. c #28445C",
"O. c #1D4463",
"+. c #1F4365",
"@. c #1A4168",
"#. c #19496D",
"$. c #164070",
"%. c #1E567B",
"&. c #204560",
"*. c #264564",
"=. c #224466",
"-. c #2B4965",
";. c #24466C",
":. c #22436C",
">. c #234B6F",
",. c #314B62",
"<. c #32506A",
"1. c #294F73",
"2. c #234C78",
"3. c #284F7A",
"4. c #2D5076",
"5. c #25537E",
"6. c #2B5179",
"7. c #365574",
"8. c #305778",
"9. c #1F5B91",
"0. c #2E5E84",
"q. c #2D5A81",
"w. c #285C8C",
"e. c #325D87",
"r. c #345D89",
"t. c #385A88",
"y. c #2C5F96",
"u. c #306283",
"i. c #36658F",
"p. c #2E6E9E",
"a. c #376F94",
"s. c #3F6991",
"d. c #3A6D98",
"f. c #3E77AE",
"g. c #426992",
"h. c #46709A",
"j. c #4877A5",
"k. c #4E7BA5",
"l. c #537EA8",
"z. c #4384AE",
"x. c #5281AB",
"c. c #4E83B5",
"v. c #5584B8",
"b. c #5994BC",
"n. c #589BC5",
"m. c #5695CB",
"M. c #5C90C9",
"N. c #5CA1C2",
"B. c #5AA1DF",
"V. c #5AA8D8",
"C. c #73A2D6",
"Z. c #6FADE8",
"A. c #6FB1ED",
"S. c #7EC5F9",
"D. c #78D0FF",
"F. c #8ACEF5",
"G. c #85D6FF",
"H. c #93D7FF",
"J. c #BDFFFF",
/* pixels */
"                                                                                                                        ",
"                                                                                                                        ",
"                                                                                                                        ",
"                                                                                                                        ",
"                                                                                                                        ",
"                                                                                                                        ",
"                                                                                                                        ",
"                                                                                                                        ",
"                o     .   .   .               .                                                                         ",
"                  o   o   . .               .                                                                           ",
"                  o o   .   o         .   .                                                                             ",
"                    o . O o o o   X           .                                                                         ",
"                  o o o o o o o X o   X                                                                                 ",
"                      o o $ $ $ o o o o o o o o   X           .                                                         ",
"                      o o # * = + + o o o o o o     .   .                                                               ",
"                      o o $ * 4 - + + + @ o o .   .           . .                                                       ",
"                          + + % u > - : ; o o = o o X o o o                   .                                         ",
"                      o X X + % 5 6 4 * * , = o $ o o o o o o o o   o   .   . .     .                                   ",
"                        . o o + ; i h 7 4 4 , + % + . + O . o . o           .   .                                       ",
"                          o o o - , j ` c 3 < : ; $ + + @ @ . . o o o X                                                 ",
"                    .     o o o X $ w L ] c 5 < , > - % % % @ O o o o o o                                               ",
"                        o o o o X $ 3 7 L ..Y 3 u 9 4 , , = = % @ + $ o o o     .                                       ",
"                      .   X o o o $ - * z ..*.W v z r w 0 0 = = $ + $ o o   o     .                                     ",
"                      o o   o o . @ - > 8 B ;.t.F D z s t 7 0 4 - ; $ $ o O   o         .                               ",
"                        .     . o o % , 3 8 U <.d.} R ! i q j t ; 1 = % # o o o o   o                                   ",
"                        .   . X $ o # = > 3 d / 0.k.2.C X.P 2 _ 0 0 4 = $ $ O O o o o .   .   .                         ",
"                          .     # o o * , 3 e d O.l.v.w.#.&.! L h w 0 , = % O O o o o         .                         ",
"                            o   o o o % , 9 9 f U @.M.Z.p.%.8.Q U c y 6 , = % % o o   . .                               ",
"                                o o o @ ; , 9 k b A y.Z.S.n.d.8. .U a 9 0 = $ % o . o .       .                         ",
"                            .   o o o @ o % 3 u k ~ $.f.H.J.F.z.4.) x 9 0 = * $ # o o   .     .                         ",
"                              .   o o o @ $ , 6 i G :.5.b.J.J.V.e.=.G h w 1 * * # o O o                                 ",
"                                o   . . @ ; 1 1 i r { 4.u.N.G.D.i.>.U j w 1 = * O O o . .                               ",
"                                    o o o $ ; ; 0 q k [ =.3.j.C.B.w.} L t 1 0 3 $ # o   o                               ",
"                                  o o o o @ $ - 4 4 h T ~ ( #.t.m.c.3.J H w * 4 % $ o o   . .                           ",
"                                      . o $ - ; * , 4 h x G J Q q.l.h.( Z G 9 , % $ o o .     .                         ",
"                                      . o o . $ $ * * 4 9 j H H M +.s.e.R B k > > % # o   .                             ",
"                                          o @ o $ % ; ; , w w p v e | g.6.B 9 6 , > $ o o o                             ",
"                                          o o o o $ ; , ; , 4 , i a e Q 7.-.d u 4 > * # O o o                           ",
"                                  .       o o . o   @ ; , ; , 4 # l 9 & G ,./ g 4 , * $ # o o                           ",
"                                                X o o o % & * 3 - - q w 2 a / ^ 6 4 * $ O o o                           ",
"                                                o o o o + + + $ % : ; > , 4 u k n h > # # o . o .                       ",
"                                                o o o o + + @ + @ + $ - - > 5 8 h w 4 ; o o o                           ",
"                                                o   o o o o . o . @ + $ # $ > > 6 9 0 4 $ o   o   .                     ",
"                                                        . X   o o o + o # $ # $ $ , 0 0 ; o   o X                       ",
"                                                        .   o .   o o o o + + o o o % = ; @ @ o                         ",
"                                                                        . X X . o o o $ % % # o .                       ",
"                                                                          . .       o o O # $ o                         ",
"                                                  .             o o       .       o     o o # # .                       ",
"                                                                                    .     .   .   .                     ",
"                                                                                            X   X   .                   ",
"                                                                                                    .                   ",
"                                                                                          .   . .                       ",
"                                                                                            .                           ",
"                                                                                                                        ",
"                                                                                                                        ",
"                                                                                                                        ",
"                                                                                                                        ",
"                                                                                                                        ",
"                                                                                                                        ",
"                                                                                                                        "
};
