/* XPM */
static char *ecafc9ec48df4e089ddc123f7f636129MHAozMItVHe1ecgi[] = {
/* columns rows colors chars-per-pixel */
"60 60 226 2 ",
"   c None",
".  c #BD770A",
"X  c #BD780A",
"o  c #BE780A",
"O  c #BE790A",
"+  c #BF790A",
"@  c #C07A0A",
"#  c #C17A0A",
"$  c #C17B0A",
"%  c #C27A0A",
"&  c #C27B0A",
"*  c #C37B0A",
"=  c #C47E0B",
"-  c #C67F0B",
";  c #C7800B",
":  c #C9820B",
">  c #CA820B",
",  c #CE800C",
"<  c #CE810C",
"1  c #CF810C",
"2  c #CE850C",
"3  c #D2810C",
"4  c #D2820D",
"5  c #D3820D",
"6  c #D3830D",
"7  c #D3840D",
"8  c #D4840D",
"9  c #D5850D",
"0  c #D4840E",
"q  c #D5850E",
"w  c #D5860E",
"e  c #D6870F",
"r  c #D38A0C",
"t  c #D48B0C",
"y  c #D58B0C",
"u  c #D6880F",
"i  c #D7880F",
"p  c #D58C0C",
"a  c #D88B0D",
"s  c #DE8F0E",
"d  c #DF8F0E",
"f  c #DA900D",
"g  c #DC920D",
"h  c #DF900E",
"j  c #DF900F",
"k  c #DF940D",
"l  c #DF950D",
"z  c #D88B10",
"x  c #D98B10",
"c  c #DB8D11",
"v  c #DC9012",
"b  c #DE9213",
"n  c #DE9313",
"m  c #DF9413",
"M  c #E1970E",
"N  c #E6970E",
"B  c #E3980E",
"V  c #E4990E",
"C  c #E7980E",
"Z  c #E69A0E",
"A  c #E69B0E",
"S  c #E79B0E",
"D  c #E89D0E",
"F  c #E99D0E",
"G  c #EC9F0F",
"H  c #E19715",
"J  c #E29715",
"K  c #E39916",
"L  c #E49A16",
"P  c #E59B16",
"I  c #E69D17",
"U  c #E79E17",
"Y  c #E79E18",
"T  c #E79F18",
"R  c #E89F18",
"E  c #ECA00F",
"W  c #EDA00F",
"Q  c #EEA00F",
"!  c #F1A40F",
"~  c #F9AB0F",
"^  c #EDA011",
"/  c #EEA416",
"(  c #E8A018",
")  c #EAA319",
"_  c #EBA41A",
"`  c #EDA619",
"'  c #EDA61B",
"]  c #EDA71B",
"[  c #F5A710",
"{  c #F6A810",
"}  c #F7A910",
"|  c #F1A817",
" . c #F8AA10",
".. c #F9AB10",
"X. c #F8AA11",
"o. c #FAAB10",
"O. c #F9AC10",
"+. c #F9AC11",
"@. c #F9AD11",
"#. c #FAAC10",
"$. c #F9AC12",
"%. c #F9AD12",
"&. c #FAAD12",
"*. c #F9AE12",
"=. c #FAAE13",
"-. c #FAAF13",
";. c #FAAF14",
":. c #F2AA19",
">. c #F0AB1C",
",. c #F0AB1D",
"<. c #F1AC1D",
"1. c #F1AD1D",
"2. c #F3AF1E",
"3. c #FAB014",
"4. c #FAB115",
"5. c #FAB216",
"6. c #FAB316",
"7. c #FAB417",
"8. c #FBB417",
"9. c #F7B11B",
"0. c #F4B01E",
"q. c #F4B11F",
"w. c #F5B11F",
"e. c #F5B21F",
"r. c #F6B31F",
"t. c #FBB418",
"y. c #FBB519",
"u. c #FBB619",
"i. c #FBB71A",
"p. c #F9B31C",
"a. c #F9B41C",
"s. c #F9B41D",
"d. c #FBB81A",
"f. c #FBB91C",
"g. c #FBBA1C",
"h. c #FCBA1C",
"j. c #FCBA1D",
"k. c #FCBB1D",
"l. c #FCBC1E",
"z. c #FCBD1F",
"x. c #FCBE1F",
"c. c #F7B420",
"v. c #F8B520",
"b. c #F9B620",
"n. c #F9B720",
"m. c #F8B621",
"M. c #F9B721",
"N. c #F9B622",
"B. c #F9B722",
"V. c #F9B821",
"C. c #FAB821",
"Z. c #F9B823",
"A. c #FCBE20",
"S. c #FCBF20",
"D. c #FCBF21",
"F. c #FDBF21",
"G. c #F9B824",
"H. c #F9B925",
"J. c #F9B926",
"K. c #F9BA27",
"L. c #FABA28",
"P. c #FABA29",
"I. c #FABB2A",
"U. c #FABB2B",
"Y. c #FABB2C",
"T. c #FBBB2C",
"R. c #FABC2D",
"E. c #FABE31",
"W. c #FABE32",
"Q. c #FABF32",
"!. c #FABF33",
"~. c #FDC021",
"^. c #FDC022",
"/. c #FDC122",
"(. c #FDC123",
"). c #FDC222",
"_. c #FDC223",
"`. c #FDC224",
"'. c #FDC225",
"]. c #FDC226",
"[. c #FDC326",
"{. c #FDC327",
"}. c #FDC328",
"|. c #FBC035",
" X c #FCC136",
".X c #FBC33B",
"XX c #FBC33C",
"oX c #FBC43F",
"OX c #FBC440",
"+X c #FCC642",
"@X c #FCC744",
"#X c #FCC745",
"$X c #FCC948",
"%X c #FCC949",
"&X c #FCC94A",
"*X c #FCCA4A",
"=X c #FDCB4D",
"-X c #FDCB4E",
";X c #FECF4C",
":X c #FDCC50",
">X c #FDCD52",
",X c #FDCE54",
"<X c #FDD057",
"1X c #FDD059",
"2X c #FED15A",
"3X c #FED15B",
"4X c #FED35D",
"5X c #FED35E",
"6X c #FED35F",
"7X c #FED360",
"8X c #FED461",
"9X c #FED562",
"0X c #FED563",
"qX c #FED564",
"wX c #FED664",
"eX c #FED665",
"rX c #FFD666",
"tX c #FFD766",
"yX c #FFD767",
"uX c #FFD768",
"iX c #FFD869",
"pX c #FFD86A",
"aX c #FFD96A",
"sX c #FFD96B",
"dX c #FFD96C",
"fX c #FFDA6C",
/* pixels */
"                                                                                                                        ",
"                                                                                                                        ",
"                                                                                                                        ",
"                                                sXsXsXsXsXsXsXsXsXsXsXsX                                                ",
"                                          sXsXsXsXsXsXsXsXsXsXsXsXsXsXsXsXsXsX                                          ",
"                                    sXsXsXsXsXsXsXsXsXsXsXsXsXsXsXsXsXsXsXsXsXsXsX                                      ",
"                                  sXsXsXsXsXsXsXsXsXsXsXsXsXsXsXsXsXsXsXsXsXsXsXsXsXsX                                  ",
"                              sXsXsXsXsXsXsXsXsXsXsXsXsXsXsXsXsXsXsXsXsXsXsXsXsXsXsXsXsXsX                              ",
"                            sXsXsXsXsXsXdXdXdXdXsXsXsXsXsXsXdXsXdXdXdXuXdXdXsXsXsXsXsXsXsXsX                            ",
"                          sXsXsXsXsXsXsXdXuXdXuXdXdXsXyXyX8X8XyXuXuXdXdXsXdXsXdXsXsXsXsXsXsXsX                          ",
"                      sXsXsXsXsXsXsXsXsXsXdXdXyX1X%X.XW.R.U.U.R.!.oX&X3XyXdXdXdXsXsXsXsXsXsXdXsX                        ",
"                      sXsXsXsXsXsXsXsXsXdX7X&XW.G.n.n.n.n.n.n.n.n.n.n.G.W.&X8XdXsXsXsXsXsXsXsX;X}.                      ",
"                    sXsXsXsXsXsXsXsXdXyX&XR.n.n.c.G.n.G.n.n.n.G.n.n.n.n.n.n.R.-XyXdXdXdXsXsX;X'.).'.                    ",
"                  sXsXsXsXsXsXsXsXsX1XW.n.n.n.n.n.n.n.n.n.n.n.n.G.n.G.n.n.V.s.n.!.1XdXsXsX;X'.).).).'.                  ",
"                sXsXsXsXsXsXsXsXsX-XG.V.c.n.n.G.n.G.n.n.n.G.n.G.n.n.n.G.n.G.n.G.n.U.:XdX;X'.'.).'.'.).'.                ",
"                sXsXsXsXsXsXsXsX%XG.n.V.G.n.n.n.n.n.G.n.n.n.n.n.G.n.n.n.n.n.n.n.n.V.n. X}.).).).).).).'.                ",
"              sXsXsXsXsXdXdXdX-XG.n.n.n.n.n.n.G.n.n.n.n.G.n.G.c.N.N.N.N.N.N.N.N.N.p.&.~ h.).'.'.).).).'.'.              ",
"            sXsXsXsXsXsXdXdX,XP.n.n.G.n.n.C.n.n.G.n.n.G.n.n.n.n.N.N.N.N.N.N.N.N.p.&.~ &.@.D.).).'.'.).).).}.            ",
"            sXsXsXsXsXsXdX7XW.n.n.n.n.n.N.N.c.G.n.n.n.n.n.n.G.n.N.N.N.N.N.N.N.p.....~ ....4.D.).).).'.).).'.            ",
"            sXsXsXsXdXdXdX#Xn.n.G.n.G.n.N.N.c.R J J L c.n.G.n.n.N.Y J ^ J p.p.o.........@.&.t.'.).'.).).'.).            ",
"          sXsXsXsXsXsXdX6XP.n.n.n.n.n.G.c.n.n.Y 5 5 5 ( G.n.n.n.w.- - - b e.@...............;.D.).).'.).).'.'.          ",
"          sXsXsXsXsXsXsX#Xn.n.n.G.n.n.n.G.n.n.0.z 5 5 c c.c.n.G.^ - - N / @...................i.'.).'.).).'.).          ",
"          sXsXsXsXsXsXyXR.n.n.n.n.G.n.G.n.G.n.G.Y 5 5 q ) G.n.<.i - - M ..~ ..................;.).'.).).).).'.          ",
"        sXsXsXsXsXsXsX>XG.n.G.n.n.n.n.n.n.n.n.n.c.x 5 5 c c.n.L i - i G ........................l.).).'.'.).).'.        ",
"        sXsXsXsXsXsXsX+Xn.n.n.G.G.n.G.n.G.n.G.n.c.Y 7 5 7 ] 2.u 7 5 h ~ ........................u.).).'.).).).'.        ",
"        sXsXsXsXsXsXuX|.n.n.n.n.n.n.n.n.n.n.n.n.n.q.z 5 5 m Y 5 5 q W ~ ........................6.'.).'.).'.).'.        ",
"        sXsXsXsXsXsXyXR.n.G.n.G.n.n.G.n.n.n.n.n.n.n.Y 7 7 q w 5 7 h  .~ ........................3.).).).).).'.).        ",
"        sXsXsXsXsXsX6XU.n.n.n.n.c.G.n.n.n.G.V.<.J J b 5 7 5 7 5 , 2 t t M ......................@.).'.).'.'.).'.        ",
"        sXsXsXsXdXdX6XG.n.G.n.G.N.N.N.C.n.n.n.( 5 5 5 5 5 5 7 < = . . o y ......................@.l.'.).).).).'.        ",
"        sXsXsXsXuXdX6XG.n.n.n.n.N.N.n.n.G.n.G.' q q q e 7 7 < * o = * o y ......................@.D.).).).'.).'.        ",
"        sXsXsXsXdXdX7XP.n.G.n.n.n.G.n.n.n.n.V.e.<.<.<.| j - * - F W W W [ } ....................;.D.).'.).'.).'.        ",
"        sXsXsXsXdXdX7XT.n.n.G.n.n.n.n.n.n.n.n.e.' ' ' ^ a * o - V S V V G } ....................;.).).'.).).).'.        ",
"        sXsXsXsXsXsXyXW.n.n.n.n.C.n.n.n.n.n.N.' 5 q 5 3 = o o o o o o o y ......................6.'.).).).'.).'.        ",
"        sXsXsXsXsXsXsX+Xn.n.G.n.N.N.n.n.n.G.N.) 5 5 , * o o o = o o o o y ~ ....................u.).).'.).).'.'.        ",
"        sXsXsXsXsXsXdX:XG.n.n.n.N.N.n.n.n.n.n.:.C V k f : o o = f k g g V @.....................h.).).'.'.'.).'.        ",
"          sXsXsXsXsXdX8XR.n.G.n.N.c.G.n.n.G.s.$.~ @.~ ~ t o o , } ~ ~ ~ ....................@.@.).'.).).).).).          ",
"          sXsXsXdXdXdXdXoXn.n.n.n.G.n.G.n.s.;...@.~ ....y . o : } O...........................u.).'.).).'.).'.          ",
"          sXsXsXsXdXuXdX1XG.G.n.n.c.n.n.s...............y . o : [ O.........................@.D.).'.).'.).).'.          ",
"          sXsXsXsXsXuXdXuXoXn.n.n.G.n.s.$...............y . o : [ @.~ ......................u.'.).).'.).).'.            ",
"            sXsXsXsXdXdXdX7XR.n.n.n.s.$.................r . o : [ } ......................;.D.).'.).).).'.).            ",
"            sXsXsXsXsXsXsXdX:XG.n.s.....................V M M V } ......................@.h.).'.).).'.'.).[.            ",
"              sXsXsXsXsXsXsXuX#Xs.......................~ ..~ @.........................u.'.).).'.).).).'.              ",
"              sXsXsXsXsXsXsXdXuXR.@...~ ................@.~ ..........................u.'.).'.).'.).).).[.              ",
"                sXsXsXsXsXsXsX;X'.t...@.............................................u.'.).).'.).).).'.'.                ",
"                  sXsXsXsXsX;X'.).).h.;.......@.................................;.h.'.).).).'.).'.).'.                  ",
"                  sXsXsXsX;X[.).'.).'.l.t.....@.............................@.u.D.).).).'.).'.).).).                    ",
"                    sXsX;X[.).'.'.).).).'.l.4.@...............~ ........@.6.l.).).'.).'.).'.).).'.[.                    ",
"                      ;X}.).).).).).'.'.).).).D.h.8.4.@.@...@.@.@.;.6.f.).).'.'.).).).'.).).).'.'.                      ",
"                        '.).).'.).).).).'.'.).).).'.).D.D.l.l.D.).).'.).).).'.).'.).).).'.).).[.                        ",
"                          [.'.).).'.'.).).).).'.).'.).).'.).).'.).'.).).'.).'.).).).'.).).'.[.                          ",
"                              '.).'.).).).).).'.).).'.).).).).).).).'.'.).'.).).).'.'.).'.                              ",
"                                '.'.).'.'.'.).).'.).).).).'.'.).'.).).).).).).'.).).'.'.                                ",
"                                    '.'.).).).'.).).'.'.).'.'.).).).).'.'.).).'.'.'.                                    ",
"                                        [.'.'.).'.).).).).).).).'.'.).).).'.'.'.                                        ",
"                                              [.'.'.).'.'.).).'.).'.'.'.'.                                              ",
"                                                                                                                        ",
"                                                                                                                        ",
"                                                                                                                        ",
"                                                                                                                        ",
"                                                                                                                        "
};
