/* XPM */
static char *a5bb2bd6f9db4166ff547c6bb33a32edmCU12JLmYOJi6e7s[] = {
/* columns rows colors chars-per-pixel */
"60 60 165 2 ",
"   c None",
".  c #1C0D0C",
"X  c #1D100F",
"o  c #1F1111",
"O  c #220E0D",
"+  c #2C0F0F",
"@  c #25110E",
"#  c #2B130F",
"$  c #32160F",
"%  c #350F11",
"&  c #241514",
"*  c #2B1211",
"=  c #261919",
"-  c #281C1C",
";  c #331211",
":  c #3A1312",
">  c #341910",
",  c #3C1C12",
"<  c #2E2222",
"1  c #312524",
"2  c #352B2B",
"3  c #392F2F",
"4  c #392F31",
"5  c #3C3334",
"6  c #3F3739",
"7  c #441514",
"8  c #4A1415",
"9  c #411E14",
"0  c #4E1816",
"q  c #4C1919",
"w  c #531416",
"e  c #5A1317",
"r  c #581917",
"t  c #52151A",
"y  c #5F1218",
"u  c #541A1B",
"i  c #5B1C1C",
"p  c #62151A",
"a  c #69161D",
"s  c #641E1F",
"d  c #6C1D1A",
"f  c #76161B",
"g  c #7C161D",
"h  c #741D1C",
"j  c #7C1C1D",
"k  c #432013",
"l  c #4B2414",
"z  c #4E2318",
"x  c #512715",
"c  c #562916",
"v  c #5C2C17",
"b  c #532219",
"n  c #59221A",
"m  c #622F17",
"M  c #6D211B",
"N  c #622E18",
"B  c #6C2E19",
"V  c #73221E",
"C  c #742C1B",
"Z  c #7C2A1C",
"A  c #643018",
"S  c #6A3319",
"D  c #72321B",
"F  c #78301C",
"G  c #671F20",
"H  c #681F20",
"J  c #423436",
"K  c #433B3D",
"L  c #692021",
"P  c #752722",
"I  c #7C2220",
"U  c #792C25",
"Y  c #7F362D",
"T  c #473F42",
"R  c #474042",
"E  c #4A4346",
"W  c #81161F",
"Q  c #841D1E",
"!  c #891C1D",
"~  c #961E1F",
"^  c #981E1F",
"/  c #82291D",
"(  c #85271D",
")  c #90261F",
"_  c #871620",
"`  c #881620",
"'  c #871920",
"]  c #8D1F20",
"[  c #941C21",
"{  c #9B1E21",
"}  c #A31E23",
"|  c #AC1E24",
" . c #B51E25",
".. c #BB1B26",
"X. c #B21D28",
"o. c #BB1E2A",
"O. c #872120",
"+. c #802E28",
"@. c #892523",
"#. c #952321",
"$. c #9D2223",
"%. c #992823",
"&. c #982A29",
"*. c #932A21",
"=. c #9A322E",
"-. c #853E33",
";. c #8E3D34",
":. c #903730",
">. c #973A33",
",. c #A32123",
"<. c #AC2024",
"1. c #B22026",
"2. c #BA2027",
"3. c #BF202A",
"4. c #C21B27",
"5. c #C41F2B",
"6. c #CB1F29",
"7. c #D21F29",
"8. c #C32027",
"9. c #C42028",
"0. c #CD2029",
"q. c #D4212B",
"w. c #DD212C",
"e. c #E0212C",
"r. c #874236",
"t. c #884437",
"y. c #8A4639",
"u. c #8E4C3E",
"i. c #965847",
"p. c #995C4B",
"a. c #A25E4D",
"s. c #9E624F",
"d. c #9F6651",
"f. c #A16853",
"g. c #A16551",
"h. c #AA765E",
"j. c #AD7A61",
"k. c #B98C6D",
"l. c #B48367",
"z. c #BE9373",
"x. c #C29878",
"c. c #C7A07D",
"v. c #C9A37F",
"b. c #CDA884",
"n. c #D4B58C",
"m. c #DBBF95",
"M. c #D9BA92",
"N. c #DEC197",
"B. c #E0C497",
"V. c #E1C69A",
"C. c #E5CB9E",
"Z. c #E3CA9D",
"A. c #E6CEA1",
"S. c #E7D0A2",
"D. c #E9D2A4",
"F. c #E9D3A4",
"G. c #EAD3A5",
"H. c #EBD5A4",
"J. c #EAD4A5",
"K. c #EBD5A6",
"L. c #EBD6A5",
"P. c #ECD6A5",
"I. c #EDD7A6",
"U. c #E9D2A2",
"Y. c #EDD8A6",
/* pixels */
"                                                                                                                        ",
"                                                . . . . . . . . . . . . . .                                             ",
"    . . . O . . . O O O + + % : 7 7 8 w e p a f f f ! ! ! ! ! W ! W g ! e . .                                           ",
"  . O p ^ ^ [ [ [ | | |  . .4.4.6.q.7.w.w.w.w.w.w.w.w.w.7.e.e.e.e.w.w.e.| # .                                           ",
"  . 8 ,.e.e.e.e.w.w.e.e.e.e.w.e.7.e.w.w.w.w.w.w.w.w.w.w.e.7.e.e.e.e.w.w.1.8 .                                           ",
"    i { 7.e.7.e.w.w.w.w.w.w.w.w.7.7.7.7.q.w.w.w.w.w.w.q...| }  .4.7.w.e.,.0 .                                           ",
"    7 ] e.7.e.e.w.w.w.w.w.q.4.,.,.y.>.:.&.| q.w.w.w. .' -.f.j.j.a.>.1.9.Q 7 .                                           ",
"    % ] 7.e.e.e.w.w.w.w.w.,.;.k.M.N.Z.N.v.s.@. .0.,.+.h.M.S.K.K.A.n.f.V V 7 .                                           ",
"    O j 9.e.w.w.w.w.w.w.1.U v.P.Y.P.P.P.Y.C.i.h j U k.D.K.D.D.D.D.K.m.i.a 7 .                                           ",
"    O d 9.w.w.w.w.w.w.q.] r.V.P.H.H.H.H.H.H.l.V d Y N.G.D.D.D.D.D.G.A.g.d 8 .                                           ",
"    . i 2.w.w.w.w.w.w.q.! r.B.P.H.H.H.H.H.P.j.V d U b.K.D.D.D.D.G.K.M.r.d 8 O                                           ",
"    . 7 1.e.w.w.w.w.w.w.| P z.D.Y.P.Y.Y.H.n.t.d ( ' -.z.N.A.A.A.V.b.i.P ^ h #                                           ",
"    . : <.w.w.w.w.w.w.w.q.#.U f.k.c.v.z.h.-.V ,.q.9.! P r.i.d.p.y.U I ,.q.Q ;                                           ",
"    . ; $.w.w.w.w.w.w.w.w.0.#.h V P P V h V <.q.w.w.0.,.j h h h j [ 2.w.q.Q ;                                           ",
"    . ; [ q.e.w.w.w.w.w.w.w.q.9.<.,.,.,.1.0.w.w.w.w.w.w.q.9.4.9.0.w.w.w.w.' ;                                           ",
"    . # ' q.e.w.w.w.q.e.w.w.w.w.w.w.w.w.w.w.w.w.w.w.w.w.w.w.e.w.w.w.w.w.q.( ; .                                         ",
"    . # ( 0.w.w.w.w.w.w.w.w.w.w.w.w.w.w.w.w.w.e.w.e.w.w.w.w.w.w.w.w.w.w.w.Q ; .                                         ",
"    . + ! q.e.w.w.w.w.w.w.w.w.w.w.w.w.w.e.e.w.q.q.7.7.0.7.7.7.7.q.q.w.w.q.' $ .                                         ",
"    . + j 0.w.w.w.w.w.w.w.w.w.w.q.9.9.5. .| | ^ ) ! ! ! ! ! ) ! ! { 9.w.q.O.; .                                         ",
"    . $ h 0.w.w.w.w.w.w.w.w.w.w. .! Q Q Q Q Q Q ! Q ! ^  .^ Q Q ! } 0.w.q.O.; .                                         ",
"    . # j 0.e.w.w.w.w.w.w.w.w.w.q.} Q j Q ( ) ^ } <.8.w.w.7.8.8.0.q.w.w.7.Q $ .                                         ",
"      ; ! q.e.w.w.w.w.w.w.w.w.w.e.q.| } ..7.q.w.w.w.w.w.w.w.w.w.w.w.w.w.w.! $ .                                         ",
"      : ( q.e.e.e.e.w.w.e.e.e.e.e.w.e.e.e.w.e.w.w.w.e.w.w.e.w.w.e.e.w.w.q.Q # .                                         ",
"      # p ) 1.2.2.2. . . . .| | 1.1.1.1. . . .1. . .2.2.2.2.2.<.<.} [ ] j 0 O . .               . . . X O O .           ",
"      . O ; : : : : : : $ % $ % : $ : : 7 : : : , : : : : $ % % : $ # $ O O . . . . . X O O O + * : : q i q X           ",
"      . . # , k k k k k k k k k k k k k k k k k k k k k k k k k k k 9 9 9 9 # . O : q u u i i s G G G G L q . .         ",
"      . X l S S S S S S S S S S S S S S A S S S S S S S S S S S S S S m m S l . * G G G H H H G G G G G G u O .         ",
"      . . l S S S S S S S S S S S S S S S S S S S S S S S S S S S S v $ $ , # . O u i G G H H H G G G G G G ; . .       ",
"      . . x S S S S S S S S S S S S S S S S S S S S S S S S S S S S A v c l , > * O O * > 7 q u i L L L G L u O .       ",
"      . . l S S S S S S S S S S S S S S S S S S S S S S S S S S S S S S S S S S v c k , * * * & * : : q u i i * .       ",
"      . @ l S S S S S S S S S S S S S S S S S S S S S S S S S S S S S S S S S S S S S S A A v x k k , > > ; * . .       ",
"      . . l S S S S S S S S S S S S S S S S S S S S S S S S S S S S S S S S S S S S S S S S S S S S S I %.{ _ 7 .       ",
"      . . x S S S S S S S S S S S S S S S S S S S S S S S S S S S S S S S S S S S S S S S S S S S D &.3.5.5.o.e .       ",
"      . . l S S S S S S S S S S S S S S S S S S S S S S S S S S v S S S S S S S S S S S S S S S S *.9.9.5.9.X.7 .       ",
"      . . x S S S S S S S S S S S S S S S S S S S S S S S S S v $ # > , l x v A S S S S S S S S D 1.5.5.5.5.| %         ",
"      . . x S S S S S S S S S S S S S S S S S S S S S S S S S S c x k , > # @ @ > , l x m S S S U o.5.5.5.o.a .         ",
"      . . l S S S S S S S S S S S S S S S S S S S S S S S S S S S S S S S v > X . X X @ @ # , l N } X.| [ w O .         ",
"      . O l S S S S S S S S S S S S S S S S S S S S S S S S S S S S S S S S x & =         X . . O ; % + O . .           ",
"      . . l S S S S S S S S S S S S S S S S S S S S S S S S S S S S S S S S v # 4                     . . . .           ",
"      . . l S S S S S S S S S S S S S S S S S S S S S S S S S S S S S S S S c # 5                                       ",
"      . . l S S S S S S S S S S S S S S S S S S S S S S S S S S S S S S S S c & 4                                       ",
"      . . l S S S S S S S S S S S S S S S S S S S S S S S S S S S S S S S S c * 3                                       ",
"      . . k S S S S S S A S S S S S S S S S S S S S A S S S A A S S S S S A k & 4                                       ",
"      . . O > > > > > > > > > > > > > > # > > > > > > > > > > > > > > > > # O . 4                                       ",
"      1 1 - X X @ # # @ @ @ @ @ @ @ @ # @ # X . . . X * & * * * . O O . . . - 2 K                                       ",
"          R & , c m v v c c v c c c v v v v l @ . * 9 z z z z k k l z 9 # & 6                                           ",
"          E = k A A A A A A A A A S A A S S A > o , z z z z z z z z z z 9 = 5                                           ",
"          E = , A A A A A A A A A A m A A m v > * q z z z z z z z z z z k = 5                                           ",
"          E = , A A A A A A A A A A A m S S v # * k z z z z z z z z z z , & 6                                           ",
"          E = k A A A A A m A A A A A A m m v > * k z z z z z z z z z z , & 6                                           ",
"          R X k S m A A S C B A A A A m B Z C , & q z z z z z z z z z z > & 6                                           ",
"          R X 9 ( / A A ( ..,.Z A A m S } 4. .w X , z b b b z z z z z z > = 6                                           ",
"          T . k ,. ./ B ,.4.4. .) C C ) ..4...e . * f g g g H u z b a a : & 6                                           ",
"          R o l ,.4. .| o.4.4.4.4... .4.4.4...e . 8 _ _ ` ` _ g h g ` _ 7 & 6                                           ",
"          E = k } 4.4.4.4.4.4.4.4.4.4.4.4.4...e O f ` _ _ _ _ ` _ ` _ _ p = 6                                           ",
"          E = l  .4.4.4.4.4.4.4.4.4.4.4.4.4...e % g ` _ _ _ _ _ _ _ ` ! p & 6                                           ",
"          E = l  .4.4.4.4.4.4.4.4.4.4.4.4.4...e % g ! W ` ` _ ` _ _ _ ` p & J                                           ",
"          E = 9 } 4.4.4.4.o.4.4.4.4.4...4.4...e O e W ! ` ` ` ` ` ` ` _ 8 & 6                                           ",
"          E - > n V I P M M M d M M d d M M d $ X * % w p a H H a H a t * = 6                                           ",
"            5 5 5 5 5 5 5 3 3 2 2 1 1 < < < < - < 4 4 4 4 J J J J J 5 5 4                                               "
};
