/* XPM */
static char *a4008741336f4539eff10d4a18b4c9e8wxK7MROUKLHewYU8[] = {
/* columns rows colors chars-per-pixel */
"60 60 160 2 ",
"   c black",
".  c #010101",
"X  c #020202",
"o  c gray1",
"O  c #040404",
"+  c gray2",
"@  c #060606",
"#  c #070707",
"$  c gray3",
"%  c #090909",
"&  c gray4",
"*  c #0B0B0B",
"=  c #0C0C0C",
"-  c gray6",
";  c #101010",
":  c #111111",
">  c gray7",
",  c #131313",
"<  c #151515",
"1  c #181818",
"2  c gray10",
"3  c #1D1D1D",
"4  c #222222",
"5  c #272727",
"6  c gray16",
"7  c #2A2A2A",
"8  c gray17",
"9  c #2C2C2C",
"0  c #2D2D2D",
"q  c gray18",
"w  c #2F2F2F",
"e  c gray19",
"r  c #313131",
"t  c #323232",
"y  c gray20",
"u  c #343434",
"i  c #353535",
"p  c gray21",
"a  c gray22",
"s  c #393939",
"d  c #3A3A3A",
"f  c gray23",
"g  c #3C3C3C",
"h  c gray24",
"j  c #3E3E3E",
"k  c #3F3F3F",
"l  c gray25",
"z  c #414141",
"x  c #444444",
"c  c #484848",
"v  c #494949",
"b  c gray29",
"n  c #4B4B4B",
"m  c #4C4C4C",
"M  c gray30",
"N  c #4E4E4E",
"B  c gray31",
"V  c #505050",
"C  c #515151",
"Z  c gray32",
"A  c #535353",
"S  c gray33",
"D  c #555555",
"F  c #565656",
"G  c #676767",
"H  c #727272",
"J  c #747474",
"K  c #7E7E7E",
"L  c gray50",
"P  c #808080",
"I  c #818181",
"U  c gray51",
"Y  c #838383",
"T  c #848484",
"R  c gray52",
"E  c #868686",
"W  c #8B8B8B",
"Q  c #8D8D8D",
"!  c #8E8E8E",
"~  c gray56",
"^  c #929292",
"/  c gray58",
"(  c #959595",
")  c gray59",
"_  c #979797",
"`  c #989898",
"'  c gray60",
"]  c #9A9A9A",
"[  c #9B9B9B",
"{  c gray61",
"}  c #9D9D9D",
"|  c gray62",
" . c #9F9F9F",
".. c #A0A0A0",
"X. c gray63",
"o. c #A2A2A2",
"O. c gray64",
"+. c #A5A5A5",
"@. c gray65",
"#. c #A7A7A7",
"$. c gray66",
"%. c #A9A9A9",
"&. c #AAAAAA",
"*. c gray67",
"=. c gray68",
"-. c #AEAEAE",
";. c #AFAFAF",
":. c gray69",
">. c #B1B1B1",
",. c #B2B2B2",
"<. c gray70",
"1. c #B4B4B4",
"2. c #B6B6B6",
"3. c #B7B7B7",
"4. c gray72",
"5. c #B9B9B9",
"6. c gray73",
"7. c #BBBBBB",
"8. c #BCBCBC",
"9. c gray74",
"0. c gray",
"q. c #C1C1C1",
"w. c gray76",
"e. c #C3C3C3",
"r. c gray78",
"t. c gray80",
"y. c #CECECE",
"u. c gray81",
"i. c gray82",
"p. c LightGray",
"a. c gray83",
"s. c #D5D5D5",
"d. c gray84",
"f. c #D7D7D7",
"g. c #D8D8D8",
"h. c gray85",
"j. c #DADADA",
"k. c gray86",
"l. c gainsboro",
"z. c #DFDFDF",
"x. c gray88",
"c. c #E1E1E1",
"v. c #E6E6E6",
"b. c #E7E7E7",
"n. c gray91",
"m. c #E9E9E9",
"M. c #ECECEC",
"N. c #EEEEEE",
"B. c #F1F1F1",
"V. c #F3F3F3",
"C. c #F4F4F4",
"Z. c gray96",
"A. c gray97",
"S. c #F8F8F8",
"D. c #F9F9F9",
"F. c gray98",
"G. c #FBFBFB",
"H. c #FDFDFD",
"J. c #FEFEFE",
"K. c white",
/* pixels */
"K.K.K.K.K.K.{ o o o o o o o o o o o o o o o o o o o o o o o o o o o o o o o o o o o o o o o o o o o o o o o $ o ~ K.K.K.",
"K.K.K.K.K.K.{ o o o o o o o o o o o o o o o o o o o o o o o o o o o o o o o o o o o o o o o o o o o o o O o o o ~ K.K.K.",
"K.K.K.K.K.K.{ o o O o o o o o o o o o o o o o o o o o o o o o o o o O O o o o o o o o o o o o o o o o o O o o o ~ K.K.K.",
"K.K.K.K.K.K.{ o o o o < $ $ o o O O O o O O O O o O O o O $ o o O o $ O o O O O O O O o O O O O o $ O : o o o o W K.K.K.",
"K.K.K.K.K.K.{ o o o 5 *.-.,.3.7.3.3.3.3.3.3.3.3.7.7.7.3.7.,.-.r.q.,.3.7.3.7.3.3.3.3.3.3.3.3.3.3.7.3.,.,.5 o o o ~ K.K.K.",
"K.K.K.K.K.K.{ o o o p a.o.P P P T P P P T P P P P P P L P L { B.+.T P T L T P P T P P P T P P P P P ] n.z o o o ~ K.K.K.",
"K.K.K.K.K.K.{ o o o y r.x o O o o o o o o o o o o o o o O o v l.j O o o o o o o o o o o o o o o o o y t.s o o o ~ K.K.K.",
"K.K.K.K.K.K.{ o o o s i.p o O o o o o o o o o o o o o o O o j M.v O o o o o o o o o o o o o o o o o w a.j o o o W K.K.K.",
"K.K.K.K.K.K.{ o o o w i.p o o o o o o o o o o o o o o o o o s n.v o o o o o o o o o o o o o o o o o 8 g.s o o o W K.K.K.",
"K.K.K.K.K.K.{ o o o y i.p o o o o o o o o o o o o o o o o o j n.v o o o o o o o o o o o o o o o o o w g.s o o o ~ K.K.K.",
"K.K.K.K.K.K.{ o o o y i.p o o o o o o o o o o o o o o o o o s n.v o o o o o o o o o o o o o o o o o w g.s o o o ~ K.K.K.",
"K.K.K.K.K.K.{ o o o y a.p o o o o o o o o o o o o o o o o o j n.v o o o o o o o o o o o o o o o o o w g.p o o o ~ K.K.K.",
"K.K.K.K.K.K.{ o o o y i.s o o o o o o o o o o o o o o o o o s n.v o o o o o o o o o o o o o o o o o w g.s o o o W K.K.K.",
"K.K.K.K.K.K.{ o o o y i.p o o o o o o o o o o o o o o o o o j n.v o o o o o o o o o o o o o o o o o w g.s o o o ~ K.K.K.",
"K.K.K.K.K.K.{ o o o w i.p o o o o o o o o o o o o o o o o o s n.v o o o o o o o o o o o o o o o o o 8 g.s o o o ~ K.K.K.",
"K.K.K.K.K.K.{ o o o y i.s o o o o o o o o o o o o o o o o o j n.v o o o o o o o o o o o o o o o o o 8 g.s o o o ~ K.K.K.",
"K.K.K.K.K.K.] o o o y a.p o o o o o o o o o o o o o o o o o s n.v o o o o o o o o o o o o o o o o o w g.p o o o W K.K.K.",
"K.K.K.K.K.K.] o o o y i.p o o o o o o o o o o o o o o o o o j n.v o o o o o o o o o o o o o o o o o w g.s o o o ~ K.K.K.",
"K.K.K.K.K.K.] o o o y i.p o o o o o o o o o o o o o o o o o s n.v o o o o o o o o o o o o o o o o o w g.s o o o ~ K.K.K.",
"K.K.K.K.K.K.o.$ o o y i.p o o o o o o o o o o o o o o o o o j n.v o o o o o o o o o o o o o o o o o w g.s o o o ~ K.K.K.",
"K.K.K.K.K.K.{ o o o w i.p o o o o o o o o o o o o o o o o o s n.v o o o o o o o o o o o o o o o o o 8 g.s o o o W K.K.K.",
"K.K.K.K.K.K.] o o o y i.p o o o o o o o o o o o o o o o o o j n.v o o o o o o o o o o o o o o o o o w g.s o o o ~ K.K.K.",
"K.K.K.F.K.K.o.$ o o y i.p o o o o o o o o o o o o o o o o o s n.v o o o o o o o o o o o o o o o o o w g.s o o o ~ K.K.K.",
"c.t.q.7.t.c.^ O o o y a.p o o o o o o o o o o o o o o o o o j n.v o o o o o o o o o o o o o o o o o w g.p o o o ~ K.K.K.",
"7.1 $ $ < +.] O o o w i.s o o o o o o o o o o o o o o o o o s n.v o o o o o o o o o o o o o o o o o w g.s o o o ~ K.K.K.",
",.O w s o W +.O o o y i.p o o o o o o o o o o o o o o o o o j n.v o o o o o o o o o o o o o o o o o w g.j o o o ~ K.K.K.",
"*.4 { 7.w W -.o o o y a.p o o o o o o o o o o o o o o o o o s n.v o o o o o o o o o o o o o o o o o 8 g.p o o o ~ K.K.K.",
"8.w T ] 8 / +.o o o y i.s o o o o o o o o o o o o o o o o o j n.v o o o o o o o o o o o o o o o o o 8 g.s o o o W K.K.K.",
"-.$ = : O / { $ o o w i.p o o o o o o o o o o o o o o o o o s n.v o o o o o o o o o o o o o o o o o w g.s o o o ~ K.K.K.",
"7.< o o O o./ $ o o y i.p o o o o o o o o o o o o o o o o o j n.v o o o o o o o o o o o o o o o o o w g.s o o o ~ K.K.K.",
"-.$ $ = o ] { $ o o y i.p o o o o o o o o o o o o o o o o o s n.v o o o o o o o o o o o o o o o o o w g.p o o o ~ K.K.K.",
"3.w P ^ y ^ o.o o o y i.p o o o o o o o o o o o o o o o o o j n.v o o o o o o o o o o o o o o o o o w g.s o o o W K.K.K.",
"-.4 +.8.8 ~ o.o o o y i.s o o o o o o o o o o o o o o o o o s n.M o o o o o o o o o o o o o o o o o 8 g.s o o o W K.K.K.",
"-.o p j o ^ +.O o o y i.s o o o o o o o o o o o o o o o o o s n.v o o o o o o o o o o o o o o o o o 8 g.s o o o ~ K.K.K.",
"7.3 < : : o.] o o o w i.p o o o o o o o o o o o o o o o o o j n.v o o o o o o o o o o o o o o o o o w l.s o o o ~ K.K.K.",
"M.+.*.{ { v.] $ o o y i.p o o o o o o o o o o o o o o o o o j n.v o o o o o o o o o o o o o o o o o w g.s o o o ~ K.K.K.",
"K.K.K.K.K.K./ $ o o y a.p o o o o o o o o o o o o o o o o o j n.v o o o o o o o o o o o o o o o o o 8 g.p o o o W K.K.K.",
"K.K.K.K.K.K.~ o o o y i.s o o o o o o o o o o o o o o o o o j n.v o o o o o o o o o o o o o o o o o 8 g.s o o o ~ K.K.K.",
"K.K.F.K.K.K.o.$ o o y i.p o o o o o o o o o o o o o o o o o s n.v o o o o o o o o o o o o o o o o o w g.s o o o ~ K.K.K.",
"K.K.K.K.K.K.{ o o o y i.p o o o o o o o o o o o o o o o o o s n.v o o o o o o o o o o o o o o o o o w g.s o o o ~ K.K.K.",
"K.K.K.K.K.K.{ o o o y i.s o o o o o o o o o o o o o o o o o j n.v o o o o o o o o o o o o o o o o o 8 g.s o o o ~ K.K.K.",
"K.K.K.K.K.K.{ o o o y i.s o o o o o o o o o o o o o o o o o j n.v o o o o o o o o o o o o o o o o o 8 g.s o o o ~ K.K.K.",
"K.K.K.K.K.K.{ o o o w i.p o o o o o o o o o o o o o o o o o j n.v o o o o o o o o o o o o o o o o o w l.s o o o ~ K.K.K.",
"K.K.K.K.K.K.{ o o o y i.p o o o o o o o o o o o o o o o o o j n.v o o o o o o o o o o o o o o o o o w g.s o o o W K.K.K.",
"K.K.K.K.K.K.] o o o y a.p o o o o o o o o o o o o o o o o o s n.v o o o o o o o o o o o o o o o o o 8 g.p o o o ~ K.K.K.",
"K.K.K.K.K.K.{ o o o y i.s o o o o o o o o o o o o o o o o o s n.v o o o o o o o o o o o o o o o o o 8 g.s o o o ~ K.K.K.",
"K.K.K.K.K.K.] o o o y i.p o o o o o o o o o o o o o o o o o j n.v o o o o o o o o o o o o o o o o o w g.s o o o ~ K.K.K.",
"K.K.K.K.K.K.] o o o y i.p o o o o o o o o o o o o o o o o o j n.v o o o o o o o o o o o o o o o o o w g.s o o o W K.K.K.",
"K.K.K.K.K.K.{ o o o y a.p o o o o o o o o o o o o o o o o o j n.v o o o o o o o o o o o o o o o o o w a.s o o o W K.K.K.",
"K.K.K.K.K.K.{ o o o y i.y o o o o o o o o o o o o o o o o o s v.v o o o o o o o o o o o o o o o o o w g.j O o o ~ K.K.K.",
"K.K.K.K.K.K.{ o o o y a.s o O o o o o o o o o o o o o o O o j M.v o o o o o o o o o o o o o o o o o 8 g.s o o o ~ K.K.K.",
"K.K.K.K.K.K.{ o o o y i.p o o o o o o o o o o o o o o o o o p v.v o o o o o o o o o o o o o o o o o 5 a.s o o o ~ K.K.K.",
"K.K.K.K.K.K.{ o o o y i.p o o O o o o o o o o o O o O o o o z M.v o o o o o o o o o o o o o o o o o w g.j o o o W K.K.K.",
"K.K.K.K.K.K.{ o o o w t.p o o o o o o o o o o o o o o o o o z v.v o o o o o o o o o o o o o o o o o w g.s o o o ~ K.K.K.",
"K.K.K.K.K.K.{ o o o 8 t.j O o o o o o o o o o o O o O O O O j g.x o o o o o o o o o o o o o o o o O y i.y o o O ~ K.K.K.",
"K.K.K.K.K.K.{ o o o y n.J M S S C C S C C S C C S C S C S v H K.~ v S S C C S C S C C S C C S S S C G B.s o o o ~ K.K.K.",
"K.K.K.K.K.K.{ O $ o w l.K.C.F.F.F.F.F.F.C.F.F.F.F.F.F.F.F.F.F.F.F.F.F.F.F.F.F.F.F.C.F.F.F.F.F.C.F.C.F.C.j o o o W K.K.K.",
"K.K.K.K.K.K./ o o o j l.K.K.K.K.K.K.K.K.K.K.K.K.K.K.K.K.K.F.K.K.K.K.K.K.F.K.K.K.K.K.K.K.K.K.K.K.K.K.K.C.j o o o W K.K.K.",
"K.K.K.K.K.F.o.8 < 1 M a.K.K.K.K.K.K.K.K.K.K.K.K.K.K.K.K.K.K.K.K.K.K.K.K.K.K.K.K.K.K.K.K.K.K.K.K.K.K.K.n.S 1 : : *.K.K.K.",
"K.K.K.K.K.K.B.8.a.t.i.K.K.K.K.F.K.K.K.K.K.K.K.K.K.K.K.K.K.K.K.K.K.K.K.K.K.K.K.K.K.K.K.K.K.K.K.K.K.K.K.K.a.t.i.a.g.K.K.K."
};
