/* XPM */
static char *f7b43839386a44a38b5977794eb2eb7ehkCYhdn3GzuYx6kh[] = {
/* columns rows colors chars-per-pixel */
"60 60 194 2 ",
"   c black",
".  c #010101",
"X  c #020202",
"o  c gray1",
"O  c #040404",
"+  c gray2",
"@  c #060606",
"#  c #070707",
"$  c gray3",
"%  c #090909",
"&  c gray4",
"*  c #0B0B0B",
"=  c #0C0C0C",
"-  c gray5",
";  c #0E0E0E",
":  c gray6",
">  c #101010",
",  c #111111",
"<  c gray7",
"1  c #131313",
"2  c gray8",
"3  c #151515",
"4  c #161616",
"5  c gray9",
"6  c #191919",
"7  c #1B1B1B",
"8  c gray11",
"9  c #1D1D1D",
"0  c #1E1E1E",
"q  c gray13",
"w  c #222222",
"e  c #232323",
"r  c #252525",
"t  c gray15",
"y  c #272727",
"u  c #282828",
"i  c gray16",
"p  c #2A2A2A",
"a  c gray17",
"s  c #2C2C2C",
"d  c #2D2D2D",
"f  c gray18",
"g  c #2F2F2F",
"h  c #313131",
"j  c gray20",
"k  c #353535",
"l  c gray21",
"z  c #373737",
"x  c gray22",
"c  c #393939",
"v  c gray23",
"b  c gray24",
"n  c #3F3F3F",
"m  c #414141",
"M  c gray26",
"N  c #444444",
"B  c gray27",
"V  c gray28",
"C  c #484848",
"Z  c #4C4C4C",
"A  c gray30",
"S  c gray31",
"D  c #505050",
"F  c #515151",
"G  c gray32",
"H  c #535353",
"J  c gray33",
"K  c #555555",
"L  c #565656",
"P  c gray34",
"I  c #585858",
"U  c gray35",
"Y  c #5A5A5A",
"T  c #5B5B5B",
"R  c gray36",
"E  c #5D5D5D",
"W  c gray37",
"Q  c #5F5F5F",
"!  c #606060",
"~  c gray38",
"^  c #626262",
"/  c gray39",
"(  c #646464",
")  c #656565",
"_  c gray40",
"`  c #676767",
"'  c #686868",
"]  c DimGray",
"[  c #6A6A6A",
"{  c gray42",
"}  c #6C6C6C",
"|  c #6D6D6D",
" . c gray43",
".. c #6F6F6F",
"X. c gray44",
"o. c #717171",
"O. c #727272",
"+. c #747474",
"@. c gray46",
"#. c #767676",
"$. c gray47",
"%. c #797979",
"&. c gray48",
"*. c #7C7C7C",
"=. c #7E7E7E",
"-. c #808080",
";. c #838383",
":. c gray52",
">. c #868686",
",. c #888888",
"<. c #898989",
"1. c gray54",
"2. c #8B8B8B",
"3. c gray55",
"4. c #8E8E8E",
"5. c gray56",
"6. c gray57",
"7. c #929292",
"8. c gray58",
"9. c gray60",
"0. c #9B9B9B",
"q. c gray61",
"w. c #9D9D9D",
"e. c gray62",
"r. c #A0A0A0",
"t. c gray63",
"y. c #A2A2A2",
"u. c gray65",
"i. c #AAAAAA",
"p. c gray68",
"a. c gray69",
"s. c #B1B1B1",
"d. c #B2B2B2",
"f. c gray70",
"g. c #B6B6B6",
"h. c gray72",
"j. c gray73",
"k. c gray74",
"l. c gray",
"z. c gray76",
"x. c #C3C3C3",
"c. c gray77",
"v. c #C5C5C5",
"b. c #C6C6C6",
"n. c gray78",
"m. c #C8C8C8",
"M. c gray79",
"N. c #CACACA",
"B. c #CBCBCB",
"V. c gray80",
"C. c #CDCDCD",
"Z. c #CECECE",
"A. c gray81",
"S. c LightGray",
"D. c gray84",
"F. c #D7D7D7",
"G. c #D8D8D8",
"H. c #DADADA",
"J. c gray86",
"K. c gainsboro",
"L. c #DDDDDD",
"P. c gray87",
"I. c #DFDFDF",
"U. c gray88",
"Y. c #E1E1E1",
"T. c #E2E2E2",
"R. c gray89",
"E. c #E4E4E4",
"W. c gray90",
"Q. c #E6E6E6",
"!. c #E7E7E7",
"~. c gray91",
"^. c #EAEAEA",
"/. c gray92",
"(. c #ECECEC",
"). c gray93",
"_. c #EEEEEE",
"`. c #EFEFEF",
"'. c gray94",
"]. c #F1F1F1",
"[. c gray95",
"{. c #F3F3F3",
"}. c #F4F4F4",
"|. c gray96",
" X c #F6F6F6",
".X c gray97",
"XX c #F8F8F8",
"oX c #F9F9F9",
"OX c gray98",
"+X c #FBFBFB",
"@X c gray99",
"#X c #FDFDFD",
"$X c #FEFEFE",
"%X c white",
/* pixels */
"%X{./..XoX.X{.{.{.{..X.X{.{.{.{.{.{..X{..X{.{.{..X{..X{.{.{..X{..X{.{.{..X{..X{.{.{..X{..X{.{.{.{.{..X.X_.{..X{..X{.{..X",
".Xe.T H K H H K K K H H H K T E H H H H K K H K H H K K H K H H H K H K H H K K H K H H K K H K T H K T K K H Z H K H H ",
"%X|                                                                                                                     ",
"%XE   + =   +     +   + +         + +   +   +     +   +   + +   + +   +   +   +   + +   +   +     $ $       + $         ",
"%XE + $                                                                                                         $       ",
"%X` $     f O.| | | ] ^ E E ^ ` ^ ` ^ ` ^ ^ ^ ` ` ^ ^ ` ` ^ ` ^ ^ ` ^ ^ ^ ^ ` ^ ^ ` ^ ` ^ ^ ^ ` E ^ E ^ +.O.` ] h     + ",
"%XE +   4 8.%XR._..X%X%X%XoX.X.XoXoXoXoXoXoXoXoXoXoXoXoXoXoXoXoXoXoXoXoXoXoXoXoXoXoXoXoXoXoXoXoX%X%XoX%XoX!.!.%XK $   + ",
"%X] $   + ;.C.>.i.z.R.%X%X%X%X%X%X%X%X%X%X%X%X%X%X%X%X%X%X%X%X%X%X%X%X%X%X%X%X%X%X%X%X%X%X%X%X%X%X%X.X!.l.1.0.R.] $   + ",
"%X]     + 4.v.$   4 k E 4.j.R.%X%X%X%X%X%X%X%X%X%X%X%X%X%X%X%X%X%X%X%X%X%X%XoX%X%X%X%X%X%X%X_.J.a.*.K p =   p _.]     + ",
"%X^     + 1.m.=         + 8 h m 7.p.S._.%X%X%X%X%X%X%X%X%XoX%X%X%X%X%X%X.X%X%X%X%X%X!.v.y.O.B p 4   +       p /.`       ",
"%X^ + +   >.m.=   + +         +   $ p Z %.y.m.%X%X%X%X%X%X%X%X%X%X%X%X%X%X%XS.v.4.| B e $               +   f _.`     + ",
"%X^       1.m.$                 +         $ y ] %X%X%X%X%X%X%X%X%X%X%X%X%XI.K 4 $             +   $ $   +   y _.| +     ",
"%X` +   $ 7.m.>               +     +   +   + H %XoX%X%X%X%X%X%X%X%X%X%X%XI.k       + $ $ $                 h .X] +     ",
"%X] +   = O.0.>       + + +       + +   +   + T oX%X%X%X%X%X%X%X%X%X%X%X%XF.f   +           + + +       + + c m.Z +     ",
"%X`       e m   $ +                     $     E oX%X%X%X%X%X%X%X%X%X%X%X%XJ.f +     + + +           + $       c y   +   ",
"%X`   $     $             +             $     T oXoX%X%X%X%XoX%X%X%X%X%X%X!.p   +             +           $   +     +   ",
"%X` +     +   +                               T oX%X%X%X%X%X%X%X%X%X%X%X%XI.p                         $           +     ",
"%X`     $     $                         +     T .X%X%X%X%X%X%X%X%X%X%X%X%XI.f                     +       $ $       $   ",
"%XE   +                             +         T oXoX%X%X%X%X%X%X%X%X%X%X%XI.f                     +       +         +   ",
"%X^       4 f                                 T oX%X%X%X%X%X%X%X%X%X%X%X%XI.p                     +           f 4       ",
"%X`     $ ^ 1.>                     +         T oXoX%X%X%X%X%X%X%X%X%X%X%XI.f                             + y i.C +     ",
"%X`     = 4.v.4                         +     K oX%X%X%XoX%X%X%X%X%X%X%X%XI.p                               k {.] +     ",
"%X`       4.C.$                               T oX%X%X%X%X%X%X%X%X%X%X%X%XI.p                       +       y {.]       ",
"%X` + +   >.C.=                             + T .X%X%X%X%X%X%X%X%X%X%X%X%XI.f                       +     + p {.]   + + ",
"%X^ +   + 1.v.=                           +   K oX%X%X%X%X%X%X%X%X%X%X%X%XI.p           $                   h _.]       ",
"%X` +     1.m.=                   +   +       ^ oXoX%X%XoX%X%X%X%X%X%X%X%XR.f   + +                     +   f _.]       ",
"%X`       1.m.=                   +           ^ oX%X%X%X%X%X%X%X%X%X%X%X%XR.p                               f _.]       ",
"%X^     + 1.m.=                 +     + +   + H oX%X%X%X%X%X%X%X%X%X%X%X%XR.y         +   +     +   +       h _.] +     ",
"%X` +   + 1.v.=                     + +     $ T .X%X%X%X%X%X%X%X%X%X%X%X%XR.y     +   $       +             h _.]       ",
"%X`     + >.m.=                     +   +     E oX%X%X%X%X%X%X%X%X%X%X%X%XI.p +   =   +       +     +       h _.]       ",
"%X`       1.m.=                       $ ] H   E oX%X%X%X%X%X%X%X%X%X%X%X%XI.f > E H     +                   f _.]     + ",
"%X^ +   + 1.m.=                       c _.z.= K oXoX%X%XoX%X%X%X%X%X%X%X%XJ.h 8 {.j.6       +       +       f _.]       ",
"%X`       1.v.=                   =   p a.4.$ T oXoX%X%XoX%X%X%X%X%X%X%X%XR.f + l.;.8               +       h _.]       ",
"%X`     + >.m.=                         e 6   ^ oX%X%X%X%X%X%X%X%X%X%X%X%XR.f + 4 4     =     +             f _.`       ",
"%X` +   + 1.m.=                     $ +       E .X%X%X%X%X%X%X%X%X%X%X%X%XI.p +   +             +           h _.]       ",
"%X`     + 1.m.=                 $         $ + K oX%X%X%X%X%X%X%X%X%X%X%X%XR.p + +           $ +         +   f _.] +     ",
"%X`     + 1.m.=                               ^ oX%X%X%X%X%X%X%X%X%X%X%X%XR.p         +         +           f _.]       ",
"%X` +     1.m.=                     + + +     E oXoX%X%XoX%X%X%X%X%X%X%X%XR.p +           + +       +       h _.]       ",
"%X`     + >.v.=                 +             K oX%X%X%X%X%X%X%X%X%X%X%X%XI.y           + +         +       f _.]       ",
"%X^     + 1.m.=                   + +         T oX%X%X%X%X%X%X%X%X%X%X%X%XI.y     + +         +             h _.]       ",
"%X^ +     7.C.$                     +         T .X%X%X%X%X%X%X%X%X%X%X%X%XI.f                       +   $   h _.] +   + ",
"%X^ +   $ >.j.8                         +     T oX%X%X%X%X%X%X%X%X%X%X%X%XI.p                       +   +   c !.^ $   + ",
"%X`     + C ] $                               T oX%X%X%X%X%X%X%X%X%X%X%X%XI.p                   +           8 ;.b       ",
"%X`       $ 4                           +     T oXoX%X%XoX%X%X%X%X%X%X%X%XI.f                   +   +     +   = =       ",
"%X`     +                                     T oX%X%X%X%X%X%X%X%X%X%X%X%XI.p                       $     +         +   ",
"%X`     $     $                         +     K oX%X%X%X%X%X%X%X%X%X%X%X%XI.f                               + $         ",
"%X` +                                         T oX%X%X%XoX%X%X%X%X%X%X%X%XI.f                   +                       ",
"%X^ +     + $                       +         T oXoX%X%X%X%X%X%X%X%X%X%X%XI.f                     +     +         +   + ",
"%X`       m O.                      +         E oX%X%X%X%X%X%X%X%X%X%X%X%XR.p       + + +                 +   %.k     + ",
"%X]   $ = *.p.6                 +             K oX%X%X%X%X%X%X%X%X%X%X%X%XJ.p                       $     $ h J.T + +   ",
"%X`     + 7.v.>                         +   + E oX%X%X%X%X%X%X%XoX%X%X%X%XR.f     +   +             $       h oX] $     ",
"%X]       4.v.+                 +             K oX%X%X%X%X%X%X%X%X%X%X%X%XI.f           + +             +   y _.]       ",
"%X` +     4.m.>                     + + +   $ ^ oX%X%X%X%X%X%X%X%X%X%X%X%XR.h   $               +       = + f _.]     + ",
"%X`   +   1.v.=                     +         H oX%X%X%X%X%X%X%X%X%X%X%X%XI.p         +                     p _.]     + ",
"%X]       4.v.$                 +         + = E oX%X%X%X%X%X%X%X%X%X%X%X%XI.c $               +     +       f _.^       ",
"%X]       4.m.>                     + > h K +.C.oXoX%X%X%X%X%X%X%X%X%X%X%X%X7.*.B p =   +       +           p /.` +     ",
"%X^       4.C.$             + 4 k E 7.l.I.oX%X%X%X%X%X%X%X%X%X%X%X%X%X%X%X%X%X%X{.J.a.;.T f >   $       $   p _.] +     ",
"%X`       1.l.=   + = 8 B | e.v./.oX%X%X%X%X%X%X%X%X%X%X%X%X%X%X%X%X%X%X%X%X%X%X%X%X%X%X{.F.g.e.K c 8 +     h {.` +   + ",
"{.O.4 4 e 1.g.b K %.y.C._.oX%X%X%X%X%X%X%X%X%X%X%X%X%X%X%X%X%X%X%X%X%X%X%X%X%X%X%X%X%X%X%X%X%X%X%X/.v.0.| Z K F.E 4 = 4 ",
"%XC.e.y.y.I.%XC._.%X%X%X%X%X%X%X%X%X%X%X%X%X%X%X%X%X%X%X%X%X%X%X%X%X%X%X%X%X%X%X%X%X%X%X%X%X%X%X%X%X%X%XoXR.m.%XI.u.i.a."
};
