/* XPM */
static char *b28c995b7e184a8fe838ba19ed876ed5E9zZimXVZEeYPj9t[] = {
/* columns rows colors chars-per-pixel */
"60 60 175 2 ",
"   c None",
".  c #0F0D0C",
"X  c #100E0D",
"o  c #12100F",
"O  c #151211",
"+  c #191514",
"@  c #171A17",
"#  c #191915",
"$  c #1C1B19",
"%  c #201817",
"&  c #221D1C",
"*  c #291E1D",
"=  c #1D231F",
"-  c #23201F",
";  c #2C201E",
":  c #1D2621",
">  c #252322",
",  c #2C2423",
"<  c #232B26",
"1  c #292C27",
"2  c #2E2D2C",
"3  c #262F2B",
"4  c #322422",
"5  c #3B2927",
"6  c #352B2B",
"7  c #3C2C2C",
"8  c #23322A",
"9  c #2C342D",
"0  c #2C382D",
"q  c #3E2E30",
"w  c #2D3732",
"e  c #273A30",
"r  c #2B3C33",
"t  c #2F3E38",
"y  c #373433",
"u  c #3A3535",
"i  c #313B36",
"p  c #3B3837",
"a  c #412D2C",
"s  c #47302F",
"d  c #453335",
"f  c #4B3332",
"g  c #483A39",
"h  c #453A3A",
"j  c #533937",
"k  c #563A39",
"l  c #5A3C3A",
"z  c #2E433A",
"x  c #2D4539",
"c  c #3D4435",
"v  c #33443B",
"b  c #304A3D",
"n  c #454E3D",
"m  c #5C413F",
"M  c #40503F",
"N  c #49503F",
"B  c #62403E",
"V  c #354B42",
"C  c #394A42",
"Z  c #355344",
"A  c #3B5245",
"S  c #3F5F44",
"D  c #3D554C",
"F  c #375848",
"G  c #3A5B4B",
"H  c #3C614F",
"J  c #3F6552",
"K  c #3F6854",
"L  c #444743",
"P  c #424D45",
"I  c #4B4942",
"U  c #5F4240",
"Y  c #445543",
"T  c #495543",
"R  c #405F44",
"E  c #495846",
"W  c #43544E",
"Q  c #475D4B",
"!  c #4C5D4C",
"~  c #505744",
"^  c #545D49",
"/  c #57594B",
"(  c #445E55",
")  c #4E5C50",
"_  c #545B51",
"`  c #644442",
"'  c #694644",
"]  c #6D4947",
"[  c #6E4A48",
"{  c #664C48",
"}  c #714947",
"|  c #704A48",
" . c #63524C",
".. c #6D524D",
"X. c #6C5A54",
"o. c #406146",
"O. c #42644A",
"+. c #4B614D",
"@. c #446A4F",
"#. c #59624D",
"$. c #426656",
"%. c #4B6452",
"&. c #446C55",
"*. c #4B6B55",
"=. c #4B6C5A",
"-. c #456E5A",
";. c #5E6B55",
":. c #5C685B",
">. c #586756",
",. c #477055",
"<. c #487357",
"1. c #45745E",
"2. c #4C745B",
"3. c #4B795D",
"4. c #51735B",
"5. c #62654E",
"6. c #646A53",
"7. c #646A5E",
"8. c #6A6B53",
"9. c #7E7B5E",
"0. c #4C7765",
"q. c #4C7D65",
"w. c #4F7E6C",
"e. c #517B63",
"r. c #5F7769",
"t. c #5C7B69",
"y. c #5A7563",
"u. c #627362",
"i. c #7D7F63",
"p. c #827F62",
"a. c #4F8266",
"s. c #4E856B",
"d. c #4F886D",
"f. c #518167",
"g. c #51866A",
"h. c #5C836D",
"j. c #538A6E",
"k. c #5A8672",
"l. c #558D72",
"z. c #578C78",
"x. c #588E79",
"c. c #568A74",
"v. c #559275",
"b. c #579578",
"n. c #589679",
"m. c #58987A",
"M. c #858365",
"N. c #8F8969",
"B. c #948E6C",
"V. c #9A9270",
"C. c #9F9875",
"Z. c #A39A76",
"A. c #A69C79",
"S. c #A99F7A",
"D. c #B1A57D",
"F. c #B1A580",
"G. c #B5A981",
"H. c #BDB084",
"J. c #C6B78A",
"K. c #CEBD8F",
"L. c #CFBF93",
"P. c #D3C294",
"I. c #DAC99A",
"U. c #E2CF9F",
"Y. c #E7D29E",
"T. c #EAD6A2",
"R. c #EED8A2",
"E. c #EFD8A2",
"W. c #EDD8A2",
"Q. c #EDD8A6",
"!. c #EED9A7",
"~. c #EFDAA7",
"^. c #F0DAA3",
"/. c #F1DAA4",
"(. c #F0DBA8",
/* pixels */
"                                                                                                                        ",
"                                              . . . . . . X X X X o o . . o o                                           ",
"    X X # : 8 8 < 8 8 8 8 8 8 8 8 8 e r x e e x b b b b Z F F F F K $.$.K $.0 o                                         ",
"  X X 8 1.s.v.v.v.v.v.v.b.v.v.v.v.v.v.b.b.b.v.v.b.b.b.b.b.n.n.n.n.n.n.n.n.l.Y #                                         ",
"  X X q.b.b.b.b.b.b.b.b.b.b.b.b.b.b.n.n.n.b.v.n.b.b.b.b.v.b.b.b.n.n.b.b.n.j.A #                                         ",
"  . O s.b.b.b.b.b.b.b.n.b.b.b.b.l.e.e.e.g.v.n.n.b.b.b.b.b.l.f.e.e.q.g.v.n.j.M #                                         ",
"    O q.b.b.b.b.b.b.b.b.b.n.j.=.Y T ~ ^ ^ %.e.v.b.b.b.l.4.;.i.C.F.B.6.+.f.j.Y #                                         ",
"    o J b.b.b.b.b.b.b.b.b.j.Q 5.B.G.J.K.J.D.M.>.g.b.a.6.A.P.T.!.(.~.P.M.T %.M # .                                       ",
"    o Z v.b.b.b.b.n.v.n.b.*.8.K././.^./.E./.Y.p.Q =.^ F.!.!.!.Q.Q.Q.!.U.p.n c # X                                       ",
"    o 9 g.b.b.b.b.b.b.b.j.T B.^.^./.Y.E.E.E.Y.V.n n ^ I.!.!.Q.Q.Q.Q.Q.!.G.N c # X                                       ",
"    . 1 =.b.n.b.b.b.b.n.j.T B.^.E.Y././.E.E.Y.B.E 2.! Z.T.!.Q.Q.!.!./.U.p.n c # .                                       ",
"    X 1 =.b.b.b.b.b.n.v.v.Q / H.Y././././.Y.P.8.*.v.f.#.V.I.!.!.(.T.L.M.Q e.Q $ X                                       ",
"    . 2 0.v.b.b.n.v.b.b.b.g.+.^ M.V.D.D.Z.N.5.+.j.n.b.g.%.6.N.S.A.M.;.2.j.b.s.: .                                       ",
"    . 1 0.b.b.b.b.n.n.n.n.n.v.e.@.E E T E Q 2.l.b.n.v.n.v.q.*.*.=.q.l.b.m.m.s.: .                                       ",
"    X @ -.n.n.b.b.n.b.v.v.b.b.n.b.v.v.j.l.v.b.b.b.b.b.b.b.n.b.v.b.m.b.b.b.b.l.: .                                       ",
"    X O A l.b.b.b.b.b.b.n.b.n.v.b.b.b.n.b.b.b.b.b.b.b.b.b.b.b.n.b.b.b.b.b.b.b.e .                                       ",
"    X o v l.n.b.b.b.b.b.b.b.b.b.b.b.b.b.b.b.b.b.b.b.v.b.b.b.b.b.n.n.b.b.v.n.n.b X                                       ",
"    X o v l.b.b.b.b.b.b.b.b.b.b.b.b.n.b.b.m.b.b.v.v.v.v.b.b.b.b.v.v.b.b.b.b.n.F o                                       ",
"    . o v v.n.b.b.b.b.b.b.v.v.v.j.g.f.g.j.g.a.<.<.<.<.a.j.b.j.a.<.,.<.s.v.b.b.K @                                       ",
"    X O c v.b.b.b.b.b.b.b.2.,.,.@.@.O.O.O.R S @.<.S S O.a.b.a.R S H <.d.n.n.v.1.@                                       ",
"      O C v.b.b.b.b.b.b.b.j.f.g.j.j.<.H S S O.a.v.<.<.a.b.b.v.a.q.d.v.b.b.b.x.1.o X                                     ",
"      o c v.b.b.b.b.b.b.b.b.b.n.n.n.v.3.<.a.j.v.b.b.b.b.b.b.b.v.b.b.b.b.b.b.b.1.@ X                                     ",
"      o v l.b.b.b.b.b.b.v.b.b.b.n.v.b.v.b.b.b.v.b.b.v.b.b.m.b.b.b.b.b.m.b.b.b.H o X                                     ",
"      , A j.v.v.l.v.v.l.v.v.v.v.v.v.v.v.v.v.v.v.v.v.v.d.d.d.d.a.q.s.q.1.0.K D & X .               . . . . O O X X       ",
"      u 2 < 9 9 9 0 0 9 9 0 9 9 9 0 0 0 9 0 0 0 0 0 0 0 ; 0 1 1 > > > & & $ % + . o o o O + + + + + : 3 i C C 3 O       ",
"      u > 6 l ` B B B B B B B ` B B B B B B B B B B B B B B B B B B ` ` B ` ' f o . + 6 q q q q q u W ( ( ( ( H @ .     ",
"      y 2 g [ | | | | | } } } | } } | } } } | | B | | | | | | | | | | | | ] } f o o * d d d d d d d L ( ( ( ( D @ .     ",
"      y 6 g [ | | | | | } } } | } } | | } } | | } } | | | | | | | | | } a 4 4 + . . % d d d d d d d g W ( ( ( W < X X   ",
"      y 9 g [ [ | | | | | | | | } | | | | | | | | | | | | | | | | | | | j 7 4 , & % + % & 4 7 7 6 7 q L ( ( ( ( V O o   ",
"      y 2 g ] [ | | | | | | | | | | } | | | | | | | | | | | | | | | } | } } } | ' ` B k f a 4 % + o o - v D W D t o .   ",
"      y 2 g ] [ | | | | | | | | | | | | | | | | | | | | | | | | } | | | } } | | | | } } | | } ` k a & $ * 2 > $ . . .   ",
"      y 2 g ] | | | | | | | | | } | | | | | | | | | | | | | | | | | | | | | | } | } } } | | } | | } ' ` :.w.D V z = o o ",
"      y 2 g [ | | | | | ] | | | | | | | | | } | | | | | | | | | | | | | | | | | | | | | | | | | | | | X.k.x.z.x.z.V . . ",
"      y 2 g [ [ | | | | | | | | | | | | | | | | | | ] } | | } | | B ` ' | | | | | | | | | | | | | | | 7.z.z.z.z.c.t .   ",
"      y 2 h [ | [ | | | | | | | | | | | | | | | | | | | | | | | } * + * 4 s l B ] | | | | } | | | | [ r.x.z.z.z.0.: .   ",
"      y 2 g ] [ | | | | | | | | | | | | ] | | | | | | | | | | | } l s 5 4 * * % * 4 a j l ` ] | | | X.k.z.z.z.w.8 . o   ",
"      y 2 g ] [ | | | | | | | | | | | | | | | | | | | | | | ] | | | | ] ] } ' j O . X X + % * 4 7 a I w.x.x.z.V o X     ",
"      y 2 g [ | | | | | | | ] | | | | | | | | | | | | | | | } | | | | | | | } ' + X X       . X . o O : z G V @ X X     ",
"      y 2 g [ | | | | | | | | | | | | | | | | | | | | ] | | | | | | | | | | | ' + . X                 . . . o X X       ",
"      y 2 g [ | | ] | | | | | | | | | | | | | | | } | | } | | | | | } | | | | ' + X X                                   ",
"      y 2 g ] | | | | | | | | | | | | | | | | | | | | | | | | | | | | | | | | B o X X                                   ",
"      y 2 g ] | | | | | | | | | | } | | | | | | | | | | | | | | | | | | | | | l o X X                                   ",
"      y 2 g ] | | | | | | | | | | | } } | | | | | | | | | | | | | | | | | | } l O X X                                   ",
"      y , q k l l l l l l l l l l l l l l l l l l l l l l l l l l l l l l l l 7 X X X                                   ",
"      p 2 - $ + O O O + O O O O O O O O O O O O O O O O O O O O O O O O O O + O X X                                     ",
"          p > O * 7 s f f f a a 7 a a a a 5 ; + o o + $ $ * > * * & & & $ $ $ &                                         ",
"            & * U | | | | | } | | | | | | | ] k + X s ` ` { ` ` ` ` ` ` ` 7 & >                                         ",
"            o , ` | | | | | | | ] | | | | | | ` * X f | [ [ [ [ | [ [ | { d & ,                                         ",
"            O 2 ` [ [ [ [ [ [ [ [ [ | [ [ [ | ' 4 X l | [ [ [ [ [ [ [ [ ] q $ >                                         ",
"            O , U [ [ [ | ] [ [ | [ [ [ [ | [ ' ; X l | [ [ [ [ [ [ [ [ { d - >                                         ",
"            o 4 ` [ [ [ | [ [ [ [ [ | | | | [ { , X l [ [ | ] [ [ [ [ U m q - >                                         ",
"            O 1 ) t...] [ u.y. .[ [ [ [ ..u.k.:., . f ]  . .] [ [ [ [ m 2 , > >                                         ",
"            O w q.b.y...7.z.v.c.7...] X.t.b.v.:.; X , ) $.$.%._ [ ] |  .P 1 > ,                                         ",
"            O 3 w.b.v.c.z.b.b.b.b.t.u.t.v.b.b.:., X r $.$.$.$.$.( _ _ ( $.i > >                                         ",
"            o 3 q.b.b.b.b.b.b.b.v.b.b.b.v.b.b.:.; X C $.$.$.$.$.$.$.$.$.( v - >                                         ",
"            O w q.b.v.b.v.b.b.b.b.b.b.n.v.v.b.:., X v $.$.$.$.$.$.$.$.$.$.t - >                                         ",
"            O w 0.m.b.b.v.n.v.b.b.x.b.b.b.b.v.:., X v $.$.$.$.$.$.$.$.$.J w & >                                         ",
"            X 9 0.m.b.b.b.b.n.n.b.b.b.b.b.b.n.:., X F $.$.$.$.$.$.$.$.$.( t & -                                         ",
"            O > Z 0.q.q.q.q.q.q.q.0.w.q.q.q.w.! * o r F G V t w w i v t i > & >                                         ",
"            O $ & = : : = : : : : : : : = = = $ + O + $ $ @ + + + + @ @ + @ - ,                                         "
};
