/* XPM */
static char *_c23caf120944ef2f26a63e8f6a3c71cH8e9BlJlRDeWvEO9[] = {
/* columns rows colors chars-per-pixel */
"60 60 169 2 ",
"   c None",
".  c #0F0D0C",
"X  c #100E0D",
"o  c #12100F",
"O  c #151211",
"+  c #191514",
"@  c #171A17",
"#  c #191915",
"$  c #1C1B19",
"%  c #201817",
"&  c #221D1C",
"*  c #291E1D",
"=  c #1D231F",
"-  c #23201F",
";  c #2C201E",
":  c #1D2621",
">  c #252322",
",  c #2C2423",
"<  c #232B26",
"1  c #292C27",
"2  c #262F2B",
"3  c #2E2D2C",
"4  c #322422",
"5  c #3B2927",
"6  c #352B2B",
"7  c #3C2C2C",
"8  c #23322A",
"9  c #2C342D",
"0  c #2C382D",
"q  c #3E2E30",
"w  c #2D3732",
"e  c #273A30",
"r  c #2B3C33",
"t  c #2F3E38",
"y  c #373433",
"u  c #3A3535",
"i  c #313B36",
"p  c #3B3837",
"a  c #412D2C",
"s  c #47302F",
"d  c #453335",
"f  c #4B3332",
"g  c #453A3A",
"h  c #483A39",
"j  c #533937",
"k  c #563A39",
"l  c #5A3C3A",
"z  c #2E433A",
"x  c #2D4539",
"c  c #3D4435",
"v  c #33443B",
"b  c #304A3D",
"n  c #454E3D",
"m  c #5C413F",
"M  c #40503F",
"N  c #49503F",
"B  c #62403E",
"V  c #354B42",
"C  c #394A42",
"Z  c #355344",
"A  c #3B5245",
"S  c #3F5F44",
"D  c #3D554C",
"F  c #375848",
"G  c #3A5B4B",
"H  c #3C614F",
"J  c #3F6552",
"K  c #3F6854",
"L  c #444743",
"P  c #424D45",
"I  c #4B4942",
"U  c #5F4240",
"Y  c #445543",
"T  c #495543",
"R  c #405F44",
"E  c #495846",
"W  c #43544E",
"Q  c #475D4B",
"!  c #4C5D4C",
"~  c #505744",
"^  c #57594B",
"/  c #545D49",
"(  c #445E55",
")  c #4E5C50",
"_  c #545B51",
"`  c #644442",
"'  c #694644",
"]  c #6D4947",
"[  c #664C48",
"{  c #6E4A48",
"}  c #714947",
"|  c #704A48",
" . c #63524C",
".. c #6D524D",
"X. c #6C5A54",
"o. c #42644A",
"O. c #4B614D",
"+. c #446A4F",
"@. c #59624D",
"#. c #426656",
"$. c #4B6452",
"%. c #4B6B55",
"&. c #456E5A",
"*. c #4B6C5A",
"=. c #586756",
"-. c #5E6B55",
";. c #5C685B",
":. c #477055",
">. c #487357",
",. c #45745E",
"<. c #4C745B",
"1. c #4B795D",
"2. c #51735B",
"3. c #62654E",
"4. c #646A53",
"5. c #6A6B53",
"6. c #646A5E",
"7. c #4C7765",
"8. c #4C7D65",
"9. c #4F7E6C",
"0. c #5A7563",
"q. c #517B63",
"w. c #5F7769",
"e. c #5C7B69",
"r. c #627362",
"t. c #7D7F63",
"y. c #827F62",
"u. c #4F8266",
"i. c #4E856B",
"p. c #4F886D",
"a. c #518167",
"s. c #51866A",
"d. c #538A6E",
"f. c #5A8672",
"g. c #558D72",
"h. c #568A74",
"j. c #578C78",
"k. c #588E79",
"l. c #559275",
"z. c #579578",
"x. c #589679",
"c. c #58987A",
"v. c #858365",
"b. c #8F8969",
"n. c #948E6C",
"m. c #9A9270",
"M. c #9F9875",
"N. c #A39A76",
"B. c #A69C79",
"V. c #A99F7A",
"C. c #B1A57D",
"Z. c #B1A580",
"A. c #B5A981",
"S. c #BDB084",
"D. c #C6B78A",
"F. c #CEBD8F",
"G. c #CFBF93",
"H. c #D3C294",
"J. c #DAC99A",
"K. c #E2CF9F",
"L. c #E7D29E",
"P. c #EAD6A2",
"I. c #EFD8A2",
"U. c #EDD8A6",
"Y. c #EED9A7",
"T. c #EFDAA7",
"R. c #F0DAA3",
"E. c #F1DAA4",
"W. c #F0DBA8",
/* pixels */
"                                                                                                                        ",
"                                          o o . . o o X X X X . . . . . .                                               ",
"                                        o 0 #.K #.#.K F F F F Z b b b b x e e x r e 8 8 8 8 8 8 8 8 8 < 8 8 : # X X     ",
"                                        # Y g.x.x.x.x.x.x.x.x.z.z.z.z.z.l.l.z.z.z.l.l.l.l.l.l.z.l.l.l.l.l.l.i.,.8 X X   ",
"                                        # A d.x.z.x.x.x.z.z.z.l.z.z.z.z.x.l.z.x.x.x.z.z.z.z.z.z.z.z.z.z.z.z.z.z.8.X X   ",
"                                        # M d.x.l.s.8.q.q.a.g.z.z.z.z.z.x.x.l.s.q.q.q.g.z.z.z.z.x.z.z.z.z.z.z.z.i.O .   ",
"                                        # Y d.a.O.4.n.Z.M.t.-.2.g.z.z.z.l.q.$./ / ~ T Y *.d.x.z.z.z.z.z.z.z.z.z.8.O     ",
"                                      . # M $.T v.H.Y.W.Y.P.H.B.4.u.z.s.=.v.C.D.F.D.A.n.3.Q d.z.z.z.z.z.z.z.z.z.J o     ",
"                                      X # c n y.K.Y.U.U.U.Y.Y.Y.Z./ *.Q y.L.E.I.E.R.E.E.F.5.%.z.x.l.x.z.z.z.z.l.Z o     ",
"                                      X # c N A.Y.Y.U.Y.U.U.Y.Y.J./ n n m.L.I.I.I.L.E.R.R.n.T d.z.z.z.z.z.z.z.s.9 o     ",
"                                      . # c n y.K.R.Y.Y.U.U.Y.P.N.! <.E n.L.I.I.E.E.L.I.R.n.T d.x.z.z.z.z.x.z.*.1 .     ",
"                                      . $ Q q.Q v.G.P.E.Y.Y.J.m.@.a.l.%.5.H.L.E.E.E.E.L.S.^ Q l.l.x.z.z.z.z.z.*.1 X     ",
"                                      . : i.z.g.<.-.v.B.V.b.4.$.s.z.x.d.O.3.b.N.C.C.m.v./ O.s.z.z.z.l.x.z.z.l.7.3 .     ",
"                                      . : i.c.c.z.g.8.*.%.%.8.l.x.l.x.z.g.<.Q E T E E +.q.l.x.x.x.x.x.z.z.z.z.7.1 .     ",
"                                      . : g.z.z.z.z.c.z.l.z.z.z.z.z.z.z.z.z.l.g.d.l.l.z.x.z.z.l.l.z.x.z.z.x.x.&.@ X     ",
"                                      . e z.z.z.z.z.z.z.z.z.z.z.z.z.z.z.z.z.z.z.x.z.z.z.l.x.z.x.z.z.z.z.z.z.g.A O X     ",
"                                      X b x.x.l.z.z.x.x.z.z.z.z.z.l.z.z.z.z.z.z.z.z.z.z.z.z.z.z.z.z.z.z.z.x.g.v o X     ",
"                                      O F x.z.z.z.z.l.l.z.z.z.z.l.l.l.l.z.z.c.z.z.x.z.z.z.z.z.z.z.z.z.z.z.z.g.v o X     ",
"                                      @ K z.z.l.i.>.:.>.u.d.z.d.u.>.>.>.>.u.s.d.s.a.s.d.l.l.l.z.z.z.z.z.z.x.l.v o .     ",
"                                      @ ,.l.x.x.p.>.H S R u.z.u.o.S S >.+.S R o.o.o.+.+.:.:.<.z.z.z.z.z.z.z.l.c O X     ",
"                                    X o ,.k.z.z.z.l.p.8.u.l.z.z.u.>.>.l.u.o.S S H >.d.d.s.a.d.z.z.z.z.z.z.z.l.C O       ",
"                                    X @ ,.z.z.z.z.z.z.z.l.z.z.z.z.z.z.z.l.d.u.>.1.l.x.x.x.z.z.z.z.z.z.z.z.z.l.c o       ",
"                                    X o H z.z.z.c.z.z.z.z.z.c.z.z.l.z.z.l.z.z.z.l.z.l.x.z.z.z.l.z.z.z.z.z.z.g.v o       ",
"      X X O O . . . .               . X & D K 7.,.8.i.8.u.p.p.p.p.l.l.l.l.l.l.l.l.l.l.l.l.l.l.l.g.l.l.g.l.l.d.A ,       ",
"      O 2 C C i 2 : + + + + + O o o o . + % $ & & > > > 1 1 0 ; 0 0 0 0 0 0 0 9 0 0 0 9 9 9 0 9 9 0 0 9 9 9 < 3 u       ",
"    . @ H ( ( ( ( W u q q q q q 6 + . o f ' ` B ` ` B B B B B B B B B B B B B B B B B B ` B B B B B B B ` l 6 > u       ",
"    . @ D ( ( ( ( L d d d d d d d * o o f } ] | | | | | | | | | | | | B | | } } } | } } | } } } | | | | | { h 3 y       ",
"  X X < W ( ( ( W h d d d d d d d % . . + 4 4 a } | | | | | | | | | } } | | } } | | } } | } } } | | | | | { h 6 y       ",
"  o O V ( ( ( ( L q 7 6 7 7 4 & % + % & , 4 7 j | | | | | | | | | | | | | | | | | | | } | | | | | | | | { { h 9 y       ",
"  . o t D W D v - o o + % 4 a f k B ` ' | } } } | } | | | | | | | | | | | | | | | } | | | | | | | | | | { ] h 3 y       ",
"  . . . $ > 3 * $ & a k ` } | | } } | | | | } } | | | } | | | | | | | | | | | | | | | | | | | | | | | | { ] h 3 y       ",
"o o = z V D 9.;.` ' } | | } | | } } } | } | | | | | | | | | | | | | | | | | | | | | | } | | | | | | | | | ] h 3 y       ",
". . V j.k.j.k.f.X.| | | | | | | | | | | | | | | | | | | | | | | | | | | | } | | | | | | | | | ] | | | | | { h 3 y       ",
"  . t h.j.j.j.j.6.| | | | | | | | | | | | | | | ' ` B | | } | | } ] | | | | | | | | | | | | | | | | | | { { h 3 y       ",
"  . : 7.j.j.j.k.w.{ | | | | } | | | | ] B l s 4 * + * } | | | | | | | | | | | | | | | | | | | | | | | { | { g 3 y       ",
"  o . 8 9.j.j.j.f.X.| | | ] ` l j a 4 * % * * 4 5 s l } | | | | | | | | | | | ] | | | | | | | | | | | | { ] h 3 y       ",
"    X o V j.k.k.9.I a 7 4 * % + X X . O j ' } ] ] | | | | ] | | | | | | | | | | | | | | | | | | | | | | { ] h 3 y       ",
"    X X @ V G z : O o . X .       X X + ' } | | | | | | | } | | | | | | | | | | | | | | | ] | | | | | | | { h 3 y       ",
"      X X o . . .                 X . + ' | | | | | | | | | | | ] | | | | | | | | | | | | | | | | | | | | { h 3 y       ",
"                                  X X + ' | | | | } | | | | | } | | } | | | | | | | | | | | | | | | ] | | { h 3 y       ",
"                                  X X o B | | | | | | | | | | | | | | | | | | | | | | | | | | | | | | | | ] h 3 y       ",
"                                  X X o l | | | | | | | | | | | | | | | | | | | | | } | | | | | | | | | | ] h 3 y       ",
"                                  X X O l } | | | | | | | | | | | | | | | | | | } } | | | | | | | | | | | ] h 3 y       ",
"                                  X X X 7 l l l l l l l l l l l l l l l l l l l l l l l l l l l l l l l l k q , y       ",
"                                    X X O + O O O O O O O O O O O O O O O O O O O O O O O O O O + O O O + $ - 3 p       ",
"                                        & $ $ $ & & & * * > * $ $ + o o + ; 5 a a a a 7 a a f f f s 7 * O > p           ",
"                                        > & 7 ` ` ` ` ` ` ` [ ` ` s X + k ] | | | | | | | } | | | | | U * &             ",
"                                        , & d [ | { { | { { { { | f X * ` | | | | | | ] | | | | | | | ` , o             ",
"                                        > $ q ] { { { { { { { { | l X 4 ' | { { { | { { { { { { { { { ` 3 O             ",
"                                        > - d [ { { { { { { { { | l X ; ' { | { { { { | { { ] | { { { U , O             ",
"                                        > - q m U { { { { ] | { { l X , [ { | | | | { { { { { | { { { ` 4 o             ",
"                                        > > , 3 m { { { { ]  . .] f . , ;.f.r...{ { { {  .0.r.{ ] ..e.) 1 O             ",
"                                        , > 1 P  .| ] { _ $.#.#.) , X ; ;.l.z.e.X.] ..6.h.l.j.6...0.z.8.w O             ",
"                                        > > i #.( _ _ ( #.#.#.#.#.r X , ;.z.z.l.e.r.e.z.z.z.z.j.h.l.z.9.2 O             ",
"                                        > - v ( #.#.#.#.#.#.#.#.#.C X ; ;.z.z.l.z.z.z.l.z.z.z.z.z.z.z.8.2 o             ",
"                                        > - t #.#.#.#.#.#.#.#.#.#.v X , ;.z.l.l.x.z.z.z.z.z.z.l.z.l.z.8.w O             ",
"                                        > & w J #.#.#.#.#.#.#.#.#.v X , ;.l.z.z.z.z.k.z.z.l.x.l.z.z.c.7.w O             ",
"                                        - & t ( #.#.#.#.#.#.#.#.#.F X , ;.x.z.z.z.z.z.z.x.x.z.z.z.z.c.7.9 X             ",
"                                        > & > i t v i w w t V G F r o * ! 9.8.8.8.9.7.8.8.8.8.8.8.8.7.Z > O             ",
"                                        , - @ + @ @ + + + + @ $ $ + O + $ = = = : : : : : : : = : : = & $ O             "
};
